<svg width="660" height="468" viewBox="0 0 660 468" fill="none" xmlns="http://www.w3.org/2000/svg">
<path d="M79 42C79 21.5386 62.4614 5 42 5C21.5386 5 5 21.5386 5 42V426C5 446.461 21.5386 463 42 463C62.4614 463 79 446.461 79 426V399H330H362H581V426C581 446.461 597.539 463 618 463C638.461 463 655 446.461 655 426V202C655 146.239 609.761 101 554 101H330C309.539 101 293 117.539 293 138V293H79V42ZM246.104 125.896C230.163 109.955 208.543 101 186 101C163.457 101 141.837 109.955 125.896 125.896C109.955 141.837 101 163.457 101 186C101 208.543 109.955 230.163 125.896 246.104C141.837 262.045 163.457 271 186 271C208.543 271 230.163 262.045 246.104 246.104C262.045 230.163 271 208.543 271 186C271 163.457 262.045 141.837 246.104 125.896Z" fill="#38D39F" stroke="#FFFEFE" stroke-width="10"/>
</svg>
