<svg width="448" height="512" viewBox="0 0 448 512" fill="none" xmlns="http://www.w3.org/2000/svg">
<path d="M133 311.2V304.523L126.593 306.402C50.5197 328.71 -5 399.022 -5 482.3C-5 501.461 10.5386 517 29.7 517H418.3C437.461 517 453 501.461 453 482.3C453 399.022 397.48 328.71 321.407 306.402L315 304.523V311.2V362V365.877L318.754 366.842C344.196 373.387 363 396.534 363 424V464C363 470.039 358.039 475 352 475H336C329.961 475 325 470.039 325 464C325 457.961 329.961 453 336 453H341V448V424C341 403.539 324.461 387 304 387C283.539 387 267 403.539 267 424V448V453H272C278.039 453 283 457.961 283 464C283 470.039 278.039 475 272 475H256C249.961 475 245 470.039 245 464V424C245 396.534 263.804 373.387 289.246 366.842L293 365.877V362V304.9V300.375L288.498 299.925C282.328 299.308 276.061 299 269.7 299H178.3C171.939 299 165.672 299.308 159.502 299.925L155 300.375V304.9V370.3V374.025L158.569 375.091C179.616 381.378 195 400.877 195 424C195 452.139 172.139 475 144 475C115.861 475 93 452.139 93 424C93 400.877 108.384 381.378 129.431 375.091L133 374.025V370.3V311.2ZM224 261C259.274 261 293.103 246.988 318.045 222.045C342.988 197.103 357 163.274 357 128C357 92.7262 342.988 58.8971 318.045 33.9548C293.103 9.01246 259.274 -5 224 -5C188.726 -5 154.897 9.01246 129.955 33.9548C105.012 58.8971 91 92.7262 91 128C91 163.274 105.012 197.103 129.955 222.045C154.897 246.988 188.726 261 224 261ZM144 453C151.691 453 159.068 449.945 164.506 444.506C169.945 439.068 173 431.691 173 424C173 416.309 169.945 408.932 164.506 403.494C159.068 398.055 151.691 395 144 395C136.309 395 128.932 398.055 123.494 403.494C118.055 408.932 115 416.309 115 424C115 431.691 118.055 439.068 123.494 444.506C128.932 449.945 136.309 453 144 453Z" fill="#38D39F" stroke="white" stroke-width="10"/>
</svg>
