<svg width="476" height="538" viewBox="0 0 476 538" fill="none" xmlns="http://www.w3.org/2000/svg">
<g filter="url(#filter0_d_43_3)">
<path d="M110 135.825V78.025C110 64.725 118.3 52.725 130.8 48.025L226.8 12.025C234 9.325 242 9.325 249.3 12.025L345.3 48.025C357.8 52.725 366.1 64.625 366.1 78.025V135.825H365.8C366 138.425 366.1 141.125 366.1 143.825V183.825C366.1 254.525 308.8 311.825 238.1 311.825C167.4 311.825 110.1 254.525 110.1 183.825V143.825C110.1 141.125 110.2 138.425 110.4 135.825H110ZM158 183.825C158 228.025 193.8 263.825 238 263.825C282.2 263.825 318 228.025 318 183.825V167.825H158V183.825ZM125.9 335.525C136.4 332.125 147.7 335.925 155.3 344.025L226.3 419.525C232.6 426.225 243.3 426.225 249.6 419.525L320.6 344.025C328.2 335.925 339.5 332.125 350 335.525C415 356.425 462 417.225 462 489.125C462 506.125 448.2 519.825 431.3 519.825H44.7C27.8 519.825 14 506.025 14 489.125C14 417.225 61 356.425 125.9 335.525ZM222 55.825V71.825H206C201.6 71.825 198 75.425 198 79.825V95.825C198 100.225 201.6 103.825 206 103.825H222V119.825C222 124.225 225.6 127.825 230 127.825H246C250.4 127.825 254 124.225 254 119.825V103.825H270C274.4 103.825 278 100.225 278 95.825V79.825C278 75.425 274.4 71.825 270 71.825H254V55.825C254 51.425 250.4 47.825 246 47.825H230C225.6 47.825 222 51.425 222 55.825Z" fill="#38D39F"/>
<path d="M229.942 416.1L229.943 416.1C234.268 420.7 241.632 420.7 245.957 416.1L245.958 416.1L316.954 340.604C316.955 340.602 316.956 340.601 316.958 340.6M229.942 416.1L350 335.525C339.5 332.125 328.2 335.925 320.6 344.025L316.958 340.6M229.942 416.1L158.946 340.604C150.254 331.34 137.005 326.675 124.364 330.767M229.942 416.1L351.54 330.768M316.958 340.6C325.651 331.337 338.9 326.675 351.54 330.768M316.958 340.6L351.54 330.768M351.54 330.768C418.538 352.315 467 414.989 467 489.125C467 508.897 450.951 524.825 431.3 524.825H44.7C25.0386 524.825 9 508.786 9 489.125C9 414.988 57.464 352.312 124.364 330.767M124.364 330.767C124.363 330.767 124.361 330.768 124.36 330.768L125.9 335.525L124.367 330.766C124.366 330.766 124.365 330.766 124.364 330.767ZM105 135.825V140.825H105.139C105.113 141.823 105.1 142.824 105.1 143.825V183.825C105.1 257.286 164.639 316.825 238.1 316.825C311.561 316.825 371.1 257.286 371.1 183.825V143.825C371.1 142.824 371.087 141.823 371.061 140.825H371.1V135.825V78.025C371.1 62.5306 361.498 48.7737 347.06 43.3449L347.056 43.3434L251.056 7.34335L251.045 7.33939L251.034 7.33548C242.623 4.2244 233.384 4.21599 225.044 7.34335L129.044 43.3434L129.04 43.3449C114.593 48.7769 105 62.6396 105 78.025V135.825ZM222 76.825H227V71.825V55.825C227 54.1864 228.361 52.825 230 52.825H246C247.639 52.825 249 54.1864 249 55.825V71.825V76.825H254H270C271.639 76.825 273 78.1864 273 79.825V95.825C273 97.4636 271.639 98.825 270 98.825H254H249V103.825V119.825C249 121.464 247.639 122.825 246 122.825H230C228.361 122.825 227 121.464 227 119.825V103.825V98.825H222H206C204.361 98.825 203 97.4636 203 95.825V79.825C203 78.1864 204.361 76.825 206 76.825H222ZM238 258.825C196.561 258.825 163 225.264 163 183.825V172.825H313V183.825C313 225.264 279.439 258.825 238 258.825Z" stroke="white" stroke-width="10"/>
</g>
<defs>
<filter id="filter0_d_43_3" x="0" y="0" width="476" height="537.825" filterUnits="userSpaceOnUse" color-interpolation-filters="sRGB">
<feFlood flood-opacity="0" result="BackgroundImageFix"/>
<feColorMatrix in="SourceAlpha" type="matrix" values="0 0 0 0 0 0 0 0 0 0 0 0 0 0 0 0 0 0 127 0" result="hardAlpha"/>
<feOffset dy="4"/>
<feGaussianBlur stdDeviation="2"/>
<feComposite in2="hardAlpha" operator="out"/>
<feColorMatrix type="matrix" values="0 0 0 0 0 0 0 0 0 0 0 0 0 0 0 0 0 0 0.25 0"/>
<feBlend mode="normal" in2="BackgroundImageFix" result="effect1_dropShadow_43_3"/>
<feBlend mode="normal" in="SourceGraphic" in2="effect1_dropShadow_43_3" result="shape"/>
</filter>
</defs>
</svg>
