<svg width="512" height="511" viewBox="0 0 512 511" fill="none" xmlns="http://www.w3.org/2000/svg">
<ellipse cx="256" cy="259.5" rx="252" ry="250.5" fill="#FFFEFE"/>
<path d="M216.629 504.952L221.25 505.677V501V327.69V323.69H217.25H158.25V260H217.25H221.25V256V201.36C221.25 171.083 230.246 148.075 245.664 132.641C261.085 117.203 283.393 108.88 310.92 108.88C324.277 108.88 337.99 110.073 348.399 111.274C353.595 111.873 357.949 112.472 360.999 112.921C361.518 112.997 361.999 113.069 362.44 113.136V166.72H335.16C318.891 166.72 307.564 171.806 300.379 180.115C293.288 188.316 290.75 199.063 290.75 209.45V256V260H294.75H358.869L349.097 323.69H294.75H290.75V327.69V501V505.677L295.371 504.952C415.846 486.031 508 381.78 508 256C508 116.791 395.209 4 256 4C116.791 4 4 116.791 4 256C4 381.78 96.1544 486.031 216.629 504.952Z" fill="#38D39F" stroke="white" stroke-width="8"/>
</svg>
