<svg width="480" height="465" viewBox="0 0 480 465" fill="none" xmlns="http://www.w3.org/2000/svg">
<rect y="8" width="480" height="448" rx="224" fill="white"/>
<path d="M240.175 113.175C174.366 113.175 121.275 166.266 121.275 232.075C121.275 297.884 174.366 350.975 240.175 350.975C305.984 350.975 359.075 297.884 359.075 232.075C359.075 166.266 305.984 113.175 240.175 113.175ZM240.175 302.775C201.281 302.775 169.475 271.062 169.475 232.075C169.475 193.084 201.184 161.375 240.175 161.375C279.166 161.375 310.875 193.084 310.875 232.075C310.875 271.062 279.069 302.775 240.175 302.775ZM359.775 143.275C376.774 143.275 390.575 129.594 390.575 112.475C390.575 95.4659 376.784 81.675 359.775 81.675C342.766 81.675 328.975 95.4659 328.975 112.475C328.975 129.474 342.656 143.275 359.775 143.275ZM466.67 139.467C464.944 103.069 456.585 70.1276 429.303 42.9466C402.122 15.765 369.182 7.40703 332.788 5.58067C295.63 3.47321 184.632 3.47311 147.467 5.58038C111.163 7.30661 78.2298 15.6671 50.952 42.8412C23.6612 70.0282 15.4066 102.976 13.5807 139.361C11.4732 176.519 11.4731 287.518 13.5804 324.683C15.3064 361.084 23.6663 394.027 50.952 421.209C78.2304 448.384 111.064 456.743 147.465 458.57C184.627 460.677 295.618 460.677 332.783 458.57C369.182 456.844 402.122 448.485 429.303 421.203C456.486 394.021 464.844 361.08 466.67 324.684C468.777 287.523 468.777 176.632 466.67 139.467ZM411.158 362.696C403.767 381.269 389.479 395.565 370.792 403.06C356.784 408.613 332.596 410.875 307.263 411.664C289.278 412.225 271.16 412.041 256.278 411.891C250.319 411.83 244.879 411.775 240.175 411.775C235.563 411.775 230.241 411.826 224.414 411.882C209.46 412.025 191.182 412.201 173.052 411.627C147.702 410.825 123.51 408.563 109.548 403.056C90.9795 395.665 76.6866 381.379 69.1914 362.696C63.6375 348.688 61.3753 324.498 60.5856 299.163C60.0249 281.178 60.2086 263.06 60.3595 248.178C60.4199 242.219 60.475 236.779 60.475 232.075C60.475 227.463 60.4239 222.141 60.368 216.314C60.2245 201.36 60.0491 183.082 60.623 164.952C61.4253 139.602 63.687 115.41 69.1938 101.448C76.5854 82.8791 90.8717 68.586 109.556 61.0909C123.563 55.5373 147.752 53.2753 173.087 52.4856C191.072 51.9249 209.19 52.1086 224.072 52.2595C230.031 52.3199 235.471 52.375 240.175 52.375C244.787 52.375 250.109 52.3239 255.936 52.268C270.89 52.1245 289.168 51.9491 307.298 52.523C332.646 53.3253 356.838 55.5868 370.799 61.0928C389.371 68.4846 403.666 82.7729 411.161 101.46C416.713 115.468 418.975 139.655 419.764 164.987C420.325 182.972 420.141 201.09 419.991 215.972C419.93 221.931 419.875 227.371 419.875 232.075C419.875 236.779 419.93 242.219 419.991 248.18C420.141 263.07 420.325 281.205 419.764 299.2C418.975 324.554 416.712 348.742 411.158 362.696Z" fill="#38D39F" stroke="white" stroke-width="8"/>
</svg>
