<svg width="584" height="456" viewBox="0 0 584 456" fill="none" xmlns="http://www.w3.org/2000/svg">
<g filter="url(#filter0_d_43_11)">
<path d="M116 64C89.5 64 68 85.5 68 112V224H164V112C164 85.5 142.5 64 116 64ZM4 112C4 50.1 54.1 0 116 0C177.9 0 228 50.1 228 112V336C228 397.9 177.9 448 116 448C54.1 448 4 397.9 4 336V112ZM558.9 367.4C551.8 379.7 535.2 380.5 525.1 370.5L337.5 182.9C327.5 172.9 328.2 156.2 340.6 149.1C364 135.7 391.1 128 420 128C508.4 128 580 199.6 580 288C580 316.9 572.3 344 558.9 367.4ZM499.4 426.9C476 440.3 448.9 448 420 448C331.6 448 260 376.4 260 288C260 259.1 267.7 232 281.1 208.6C288.2 196.3 304.8 195.5 314.9 205.5L502.5 393.1C512.5 403.1 511.8 419.8 499.4 426.9Z" fill="#38D39F"/>
<path d="M63 224V229H68H164H169V224V112C169 82.7386 145.261 59 116 59C86.7386 59 63 82.7386 63 112V224ZM343.084 153.439L343.085 153.439C365.753 140.458 392 133 420 133C505.639 133 575 202.361 575 288C575 315.998 567.543 342.242 554.565 364.909C549.402 373.84 536.84 375.078 528.627 366.956C528.624 366.953 528.621 366.95 528.618 366.947L341.036 179.364C332.909 171.238 334.08 158.595 343.084 153.439ZM496.916 422.561L496.915 422.561C474.247 435.542 448 443 420 443C334.361 443 265 373.639 265 288C265 260.005 272.455 233.762 285.432 211.097C290.593 202.16 303.161 200.92 311.376 209.047C311.378 209.049 311.38 209.051 311.382 209.053L498.964 396.636C507.091 404.762 505.92 417.405 496.916 422.561ZM9 112C9 52.8614 56.8614 5 116 5C175.139 5 223 52.8614 223 112V336C223 395.139 175.139 443 116 443C56.8614 443 9 395.139 9 336V112Z" stroke="white" stroke-width="10"/>
</g>
<defs>
<filter id="filter0_d_43_11" x="0" y="0" width="584" height="456" filterUnits="userSpaceOnUse" color-interpolation-filters="sRGB">
<feFlood flood-opacity="0" result="BackgroundImageFix"/>
<feColorMatrix in="SourceAlpha" type="matrix" values="0 0 0 0 0 0 0 0 0 0 0 0 0 0 0 0 0 0 127 0" result="hardAlpha"/>
<feOffset dy="4"/>
<feGaussianBlur stdDeviation="2"/>
<feComposite in2="hardAlpha" operator="out"/>
<feColorMatrix type="matrix" values="0 0 0 0 0 0 0 0 0 0 0 0 0 0 0 0 0 0 0.25 0"/>
<feBlend mode="normal" in2="BackgroundImageFix" result="effect1_dropShadow_43_11"/>
<feBlend mode="normal" in="SourceGraphic" in2="effect1_dropShadow_43_11" result="shape"/>
</filter>
</defs>
</svg>
