<svg width="620" height="560" viewBox="0 0 620 560" fill="none" xmlns="http://www.w3.org/2000/svg">
<path d="M-5 280V285H0H155C161.636 285 167.222 290.561 167.222 297.5C167.222 304.439 161.636 310 155 310H0H-5V315V385V390H0H155C161.636 390 167.222 395.561 167.222 402.5C167.222 409.439 161.636 415 155 415H0H-5V420V507.5C-5 539.17 20.3058 565 51.6667 565H286.212H295.102L290.484 557.403C284.172 547.018 280.556 534.79 280.556 521.609C280.556 472.152 307.325 429.055 346.918 406.517L349.444 405.079V402.172V297.281V52.5C349.444 20.8299 324.139 -5 292.778 -5H51.6667C20.3058 -5 -5 20.8299 -5 52.5V280ZM193.056 113.75V118.75H198.056H223.889C230.525 118.75 236.111 124.311 236.111 131.25V148.75C236.111 155.689 230.525 161.25 223.889 161.25H198.056H193.056V166.25V192.5C193.056 199.439 187.469 205 180.833 205H163.611C156.975 205 151.389 199.439 151.389 192.5V166.25V161.25H146.389H120.556C113.92 161.25 108.333 155.689 108.333 148.75V131.25C108.333 124.311 113.92 118.75 120.556 118.75H146.389H151.389V113.75V87.5C151.389 80.5607 156.975 75 163.611 75H180.833C187.469 75 193.056 80.5607 193.056 87.5V113.75ZM556.111 297.5C556.111 272.993 546.531 249.474 529.453 232.121C512.373 214.765 489.19 205 465 205C440.81 205 417.627 214.765 400.547 232.121C383.469 249.474 373.889 272.993 373.889 297.5C373.889 322.007 383.469 345.526 400.547 362.879C417.627 380.235 440.81 390 465 390C489.19 390 512.373 380.235 529.453 362.879C546.531 345.526 556.111 322.007 556.111 297.5ZM305 521.828C305 545.623 323.955 565 347.566 565H582.434C606.045 565 625 545.623 625 521.828C625 462.924 577.951 415 519.788 415H410.212C352.049 415 305 462.924 305 521.828Z" fill="#38D39F" stroke="white" stroke-width="10"/>
</svg>
