<svg width="640" height="512" viewBox="0 0 640 512" fill="none" xmlns="http://www.w3.org/2000/svg">
<path d="M176 134.5H182.5V128V80C182.5 74.7898 186.79 70.5 192 70.5H224C229.21 70.5 233.5 74.7898 233.5 80V128V134.5H240H288C293.21 134.5 297.5 138.79 297.5 144V176C297.5 181.21 293.21 185.5 288 185.5H240H233.5V192V240C233.5 245.21 229.21 249.5 224 249.5H192C186.79 249.5 182.5 245.21 182.5 240V192V185.5H176H128C122.79 185.5 118.5 181.21 118.5 176V144C118.5 138.79 122.79 134.5 128 134.5H176ZM48 -6.5C17.9101 -6.5 -6.5 17.9101 -6.5 48V368C-6.5 398.09 17.9101 422.5 48 422.5H57.703C61.0583 476.064 105.593 518.5 160 518.5C214.407 518.5 258.942 476.064 262.297 422.5H377.703C381.058 476.064 425.593 518.5 480 518.5C534.407 518.5 578.942 476.064 582.297 422.5H608C629.29 422.5 646.5 405.29 646.5 384C646.5 364.926 632.686 349.127 614.5 346.044V288V256V237.3C614.5 218.591 607.126 200.633 593.896 187.404L516.596 110.104C503.367 96.8742 485.409 89.5 466.7 89.5H422.5V48C422.5 17.9101 398.09 -6.5 368 -6.5H48ZM537.5 239.992V249.5H422.5V166.5H464.008L537.5 239.992ZM189.345 445.345C181.562 453.128 171.006 457.5 160 457.5C148.994 457.5 138.438 453.128 130.655 445.345C122.872 437.562 118.5 427.006 118.5 416C118.5 404.994 122.872 394.438 130.655 386.655C138.438 378.872 148.994 374.5 160 374.5C171.006 374.5 181.562 378.872 189.345 386.655C197.128 394.438 201.5 404.993 201.5 416C201.5 427.007 197.128 437.562 189.345 445.345ZM509.345 386.655C517.128 394.438 521.5 404.994 521.5 416C521.5 427.006 517.128 437.562 509.345 445.345C501.562 453.128 491.006 457.5 480 457.5C468.993 457.5 458.438 453.128 450.655 445.345C442.872 437.562 438.5 427.007 438.5 416C438.5 404.993 442.872 394.438 450.655 386.655C458.438 378.872 468.993 374.5 480 374.5C491.006 374.5 501.562 378.872 509.345 386.655Z" fill="#11C554" stroke="white" stroke-width="13"/>
</svg>
