<svg width="540" height="434" viewBox="0 0 540 434" fill="none" xmlns="http://www.w3.org/2000/svg">
<path d="M252.219 134.67C168.38 128.858 93.7918 88.2208 43.8414 26.647L40.1958 22.1531L37.2799 27.1514C27.8387 43.3355 22.441 61.896 22.441 82.121C22.441 114.71 36.7524 144.034 59.5169 164.028C48.1109 162.001 37.3643 158.072 27.7405 152.7L21.791 149.379V156.193V157.492C21.791 204.301 51.0533 243.99 92.3185 259.555C89.0039 259.88 85.6603 260.05 82.32 260.05C75.7536 260.05 69.4641 259.425 63.0949 258.47L56.7291 257.516L58.6926 263.646C71.4546 303.488 106.608 333.263 149.567 338.426C115.723 362.252 74.6599 376.03 30.34 376.03C21.6699 376.03 13.7095 375.709 5.45819 374.757L2.83585 382.095C49.9235 412.388 105.9 429.837 166.137 429.837C361.78 429.837 468.695 267.72 468.695 127.279V127.212C468.695 123.417 468.695 119.505 468.495 115.562C488.596 100.578 506.164 82.2031 520.294 61.6469L528.15 50.2186L515.415 55.7077C501.866 61.5472 487.485 66.1816 472.65 69.1202C488.306 56.0742 500.186 38.7867 506.514 19.0162L509.738 8.94158L500.654 14.3621C481.51 25.7859 459.965 34.2205 437.481 38.7881C417.673 18.4893 389.987 6 359.435 6C299.066 6 250.501 54.9049 250.501 114.934C250.501 121.593 251.131 128.226 252.219 134.67Z" fill="#38D39F" stroke="white" stroke-width="8"/>
</svg>
